<svg xmlns="http://www.w3.org/2000/svg" viewBox="0 0 24 24" width="100%" height="100%"><path d="M12 4.62c-2.4 0-2.69 0-3.64.06A5 5 0 0 0 6.7 5a3 3 0 0 0-1 .68 3 3 0 0 0-.67 1 5 5 0 0 0-.31 1.67v7.27A5 5 0 0 0 5 17.3a3 3 0 0 0 .67 1 3 3 0 0 0 1 .68 5 5 0 0 0 1.66.3c1 .05 1.24.06 3.64.06s2.69 0 3.64-.06a5 5 0 0 0 1.67-.3A3 3 0 0 0 19 17.3a5 5 0 0 0 .31-1.67c0-1 .05-1.23.05-3.64s0-2.68-.05-3.63A5 5 0 0 0 19 6.69 3 3 0 0 0 17.31 5a5 5 0 0 0-1.67-.3c-.95-.07-1.24-.08-3.64-.08M12 3c2.45 0 2.75 0 3.71.06a7 7 0 0 1 2.19.41 4.6 4.6 0 0 1 2.63 2.63 7 7 0 0 1 .41 2.19c0 1 .06 1.26.06 3.71s0 2.75-.06 3.71a7 7 0 0 1-.41 2.19 4.6 4.6 0 0 1-2.63 2.63 7 7 0 0 1-2.19.41c-1 0-1.26.06-3.71.06s-2.75 0-3.71-.06a7 7 0 0 1-2.19-.41 4.6 4.6 0 0 1-2.63-2.63 7 7 0 0 1-.41-2.19C3 14.75 3 14.45 3 12s0-2.75.06-3.71a7 7 0 0 1 .41-2.18 4 4 0 0 1 1-1.6 4.4 4.4 0 0 1 1.59-1 7 7 0 0 1 2.19-.41C9.25 3 9.55 3 12 3m0 4.38A4.62 4.62 0 1 1 7.38 12 4.6 4.6 0 0 1 12 7.38M12 15a3 3 0 1 0-3-3 3 3 0 0 0 3 3m5.89-7.81a1.08 1.08 0 1 1-1.08-1.08 1.1 1.1 0 0 1 1.08 1.08"/></svg>